<!--?xml version="1.0" encoding="utf-8"?-->
<!-- Generator: Adobe Illustrator 18.1.1, SVG Export Plug-In . SVG Version: 6.00 Build 0)  -->

<svg version="1.1" id="_x31_0" xmlns="http://www.w3.org/2000/svg" xmlns:xlink="http://www.w3.org/1999/xlink" x="0px" y="0px" viewBox="0 0 512 512" style="width: 256px; height: 256px; opacity: 1;" xml:space="preserve">
<style type="text/css">
	.st0{fill:#374149;}
</style>
<g>
	<path class="st0" d="M501.602,42.562H10.402C4.641,42.562,0,47.203,0,52.961v406c0,5.758,4.641,10.477,10.402,10.477h491.199
		c5.758,0,10.398-4.719,10.398-10.477v-406C512,47.203,507.359,42.562,501.602,42.562z M252.562,108.641
		c0-14.238,11.598-25.84,25.84-25.84c14.32,0,25.918,11.602,25.918,25.84c0,14.32-11.598,25.922-25.918,25.922
		C264.16,134.562,252.562,122.961,252.562,108.641z M326.562,108.641c0-14.238,11.52-25.84,25.84-25.84
		c14.32,0,25.918,11.602,25.918,25.84c0,14.32-11.598,25.922-25.918,25.922C338.082,134.562,326.562,122.961,326.562,108.641z
		 M400.481,108.641c0-14.238,11.602-25.84,25.922-25.84c14.238,0,25.84,11.602,25.84,25.84c0,14.32-11.602,25.922-25.84,25.922
		C412.082,134.562,400.481,122.961,400.481,108.641z M456,168.082v245.356H56V168.082h398.942H456z" style="fill: rgb(255, 255, 255);"></path>
	<path class="st0" d="M83.797,302.418l38.16,19.004c0.59,0.278,1.078,0.43,1.493,0.473l0.179,0.012l1.141-0.402l0.25-0.352
		c0.301-0.418,0.508-1.027,0.626-1.871c0.106-0.722,0.16-1.726,0.16-3.003c0-1.422-0.039-2.547-0.106-3.375
		c-0.07-0.894-0.199-1.594-0.386-2.149c-0.227-0.644-0.57-1.141-1.028-1.476c-0.351-0.258-0.801-0.52-1.363-0.782l-16.214-7.519
		l-10.11-4.801l26.898-12.61c0.465-0.23,0.828-0.465,1.114-0.711c0.367-0.312,0.633-0.774,0.812-1.406
		c0.149-0.527,0.25-1.203,0.305-2.07c0.051-0.809,0.078-1.902,0.078-3.286c0-2.199-0.234-3.598-0.726-4.398
		c-0.379-0.625-0.985-0.969-1.703-0.969c-0.434,0-0.902,0.121-1.434,0.379l-38.141,18.922l-0.778,0.664l-0.106,0.145
		c-0.254,0.343-0.434,0.77-0.562,1.297c-0.109,0.446-0.199,1.012-0.27,1.703c-0.066,0.672-0.105,1.453-0.105,2.351
		c0,1.778,0.117,3.09,0.351,4.012C82.606,301.274,83.082,302.012,83.797,302.418z" style="fill: rgb(255, 255, 255);"></path>
	<path class="st0" d="M130.715,339.934c0.546,0.324,1.289,0.554,2.266,0.707c0.898,0.137,2.05,0.21,3.461,0.21
		c1.137,0,2.07-0.046,2.812-0.133c0.766-0.09,1.43-0.226,1.969-0.414c0.598-0.207,1.086-0.492,1.442-0.848
		c0.348-0.347,0.629-0.801,0.844-1.359l29.703-83.598c0.203-0.684,0.262-1.301,0.175-1.84c-0.074-0.457-0.332-1.114-1.14-1.61
		c-0.531-0.328-1.262-0.562-2.227-0.71c-0.878-0.137-2.042-0.211-3.488-0.211c-1.098,0-2.031,0.043-2.805,0.129
		c-0.816,0.094-1.476,0.23-2.008,0.418c-0.59,0.21-1.07,0.511-1.426,0.89c-0.351,0.375-0.621,0.847-0.777,1.367l-29.742,83.504
		c-0.242,0.695-0.328,1.328-0.234,1.882C129.614,338.781,129.875,339.438,130.715,339.934z" style="fill: rgb(255, 255, 255);"></path>
	<path class="st0" d="M177.668,321.703c0.488,0.488,1.238,1.019,2.289,1.625c1.016,0.59,2.282,1.149,3.797,1.684
		c1.497,0.523,3.219,0.976,5.172,1.351c1.95,0.371,4.09,0.562,6.352,0.562c3.347,0,6.542-0.449,9.492-1.332
		c2.973-0.886,5.614-2.234,7.844-4c2.246-1.778,4.046-4.027,5.359-6.68c1.309-2.66,1.977-5.781,1.977-9.277
		c0-2.688-0.422-5.066-1.262-7.066c-0.828-1.989-1.934-3.746-3.289-5.223c-1.344-1.461-2.894-2.73-4.61-3.781
		c-1.687-1.027-3.406-1.946-5.16-2.754c-1.73-0.801-3.426-1.559-5.094-2.274c-1.618-0.695-3.062-1.438-4.34-2.23
		c-1.214-0.75-2.187-1.618-2.898-2.57c-0.672-0.902-1-1.95-1-3.195c0-0.848,0.153-1.664,0.461-2.418
		c0.297-0.742,0.742-1.359,1.359-1.89c0.622-0.535,1.422-0.965,2.371-1.278c0.969-0.316,2.133-0.48,3.465-0.48
		c1.73,0,3.344,0.214,4.782,0.636c1.481,0.434,2.782,0.918,3.906,1.446c1.133,0.535,2.09,1.031,2.871,1.485
		c0.961,0.562,1.629,0.812,2.168,0.812c0.582,0,1.066-0.176,1.445-0.523c0.34-0.317,0.578-0.758,0.742-1.352
		c0.125-0.468,0.218-1.07,0.274-1.797c0.054-0.679,0.078-1.511,0.078-2.5c0-0.878-0.015-1.617-0.054-2.21
		c-0.031-0.633-0.098-1.16-0.191-1.574c-0.098-0.457-0.219-0.82-0.367-1.121c-0.156-0.317-0.43-0.665-0.828-1.066
		c-0.41-0.406-1.133-0.856-2.274-1.406c-1.062-0.516-2.282-0.977-3.656-1.391c-1.364-0.41-2.825-0.734-4.391-0.972
		c-1.566-0.238-3.137-0.36-4.703-0.36c-3.019,0-5.914,0.398-8.617,1.18c-2.73,0.789-5.141,2.004-7.153,3.606
		c-2.031,1.617-3.667,3.672-4.863,6.113c-1.191,2.442-1.801,5.305-1.801,8.504c0,2.786,0.422,5.219,1.258,7.238
		c0.828,2.004,1.93,3.766,3.262,5.242c1.328,1.461,2.847,2.734,4.535,3.781c1.652,1.032,3.355,1.95,5.113,2.762
		c1.73,0.797,3.41,1.554,5.039,2.27c1.578,0.691,2.992,1.434,4.238,2.226c1.184,0.754,2.156,1.621,2.886,2.582
		c0.688,0.902,1.02,1.961,1.02,3.238c0,1.137-0.207,2.172-0.622,3.082c-0.406,0.902-1,1.664-1.766,2.273
		c-0.793,0.626-1.777,1.122-2.926,1.469c-1.176,0.356-2.531,0.535-4.031,0.535c-2.332,0-4.398-0.266-6.152-0.785
		c-1.786-0.531-3.325-1.118-4.61-1.762c-1.293-0.645-2.351-1.234-3.176-1.77c-1.007-0.653-1.781-0.957-2.426-0.957
		c-0.515,0-0.981,0.148-1.371,0.441c-0.39,0.282-0.695,0.73-0.902,1.325c-0.168,0.5-0.289,1.117-0.363,1.886
		c-0.066,0.718-0.102,1.61-0.102,2.668c0,1.602,0.094,2.809,0.293,3.691C176.738,320.39,177.125,321.156,177.668,321.703z" style="fill: rgb(255, 255, 255);"></path>
	<path class="st0" d="M225.168,288.183h4.469v21.879c0,2.785,0.297,5.238,0.879,7.293c0.598,2.11,1.546,3.887,2.828,5.29
		c1.285,1.41,2.922,2.465,4.874,3.14c1.906,0.657,4.172,0.993,6.742,0.993c0.957,0,1.91-0.055,2.852-0.157
		c0.949-0.106,1.828-0.25,2.637-0.442c0.835-0.195,1.558-0.426,2.183-0.691c0.691-0.297,1.211-0.637,1.598-1.042
		c0.406-0.43,0.711-1.094,0.93-2.032c0.199-0.851,0.297-2.011,0.297-3.55c0-0.977-0.046-1.778-0.133-2.402
		c-0.09-0.648-0.191-1.16-0.297-1.535l-0.511-1.008l-0.274-0.172c-0.317-0.202-0.668-0.308-1.027-0.308l-0.942,0.175l-1.16,0.45
		c-0.383,0.137-0.821,0.258-1.313,0.367c-0.469,0.102-1.008,0.152-1.61,0.152c-1.656,0-2.758-0.465-3.359-1.418
		c-0.672-1.066-1.012-2.746-1.012-4.992v-19.989h8.848c0.687,0,1.629-0.293,2.222-1.687c0.379-0.894,0.566-2.278,0.566-4.234
		c0-1.004-0.046-1.851-0.133-2.543c-0.09-0.75-0.234-1.339-0.434-1.801c-0.234-0.531-0.542-0.93-0.93-1.187
		c-0.39-0.258-0.84-0.39-1.344-0.39h-8.797v-9.047c0-0.519-0.156-0.992-0.469-1.406c-0.297-0.394-0.746-0.71-1.363-0.953
		c-0.542-0.211-1.242-0.359-2.137-0.45c-0.839-0.09-1.886-0.133-3.148-0.133c-1.226,0-2.258,0.043-3.094,0.133
		c-0.894,0.09-1.602,0.234-2.157,0.446c-0.652,0.246-1.105,0.57-1.39,0.984c-0.281,0.41-0.426,0.871-0.426,1.379v9.047h-4.422
		c-0.5,0-0.954,0.133-1.344,0.39c-0.383,0.258-0.695,0.656-0.926,1.187c-0.199,0.462-0.344,1.051-0.438,1.801
		c-0.086,0.692-0.133,1.539-0.133,2.543c0,1.957,0.187,3.34,0.57,4.234C223.539,287.89,224.477,288.183,225.168,288.183z" style="fill: rgb(255, 255, 255);"></path>
	<path class="st0" d="M273.602,322.98c0.199,0.555,0.512,1.086,0.922,1.574c0.234,0.286,0.493,0.527,0.766,0.73l-5.648,14.192
		c-0.29,0.699-0.406,1.301-0.363,1.836c0.039,0.461,0.246,1.113,1.019,1.633c0.512,0.335,1.211,0.57,2.141,0.702
		c0.828,0.122,1.93,0.188,3.309,0.188c2.652,0,4.629-0.191,6.038-0.578c1.606-0.442,2.618-1.222,3.02-2.336l20.145-59.199
		c0.289-0.91,0.441-1.722,0.441-2.422c0-0.867-0.34-1.598-0.988-2.125c-0.57-0.469-1.39-0.77-2.508-0.93
		c-0.973-0.136-2.199-0.206-3.672-0.206c-1.894,0-3.222,0.074-3.98,0.214c-0.894,0.164-1.543,0.434-1.981,0.825
		c-0.457,0.41-0.785,1.098-1.011,2.094l-4.962,15.722l-3.965,12.164l-9.598-27.281c-0.254-0.829-0.5-1.462-0.766-1.934
		c-0.328-0.582-0.812-1.012-1.449-1.286c-0.562-0.242-1.29-0.386-2.227-0.442c-0.843-0.05-1.984-0.078-3.434-0.078
		c-1.605,0-2.894,0.07-3.87,0.206c-1.122,0.161-1.926,0.462-2.458,0.926c-0.578,0.507-0.886,1.226-0.886,2.078
		c0,0.723,0.23,1.692,0.703,2.962L273.602,322.98z" style="fill: rgb(255, 255, 255);"></path>
	<path class="st0" d="M312.942,325.535c0.546,0.187,1.234,0.324,2.106,0.414c0.816,0.086,1.855,0.13,3.121,0.13
		c1.262,0,2.305-0.043,3.121-0.13c0.867-0.09,1.555-0.226,2.106-0.414c0.641-0.222,1.098-0.516,1.402-0.894
		c0.32-0.402,0.485-0.871,0.485-1.398v-65.398c0-0.52-0.157-0.993-0.469-1.406c-0.301-0.402-0.758-0.715-1.395-0.958
		c-0.55-0.206-1.242-0.363-2.113-0.468c-0.821-0.106-1.871-0.157-3.137-0.157c-1.27,0-2.317,0.051-3.141,0.157
		c-0.867,0.105-1.558,0.262-2.113,0.468c-0.637,0.242-1.094,0.555-1.395,0.958c-0.312,0.414-0.469,0.886-0.469,1.406v65.398
		c0,0.527,0.165,0.996,0.485,1.398C311.84,325.019,312.297,325.313,312.942,325.535z" style="fill: rgb(255, 255, 255);"></path>
	<path class="st0" d="M339.645,320.652c2.074,2.11,4.687,3.703,7.77,4.734c3.042,1.02,6.617,1.539,10.636,1.539
		c2.234,0,4.329-0.145,6.294-0.434c1.957-0.285,3.691-0.625,5.21-1.012c1.535-0.394,2.801-0.797,3.79-1.206
		c1.422-0.586,1.839-0.914,2.066-1.153c0.266-0.285,0.484-0.586,0.648-0.898c0.176-0.324,0.305-0.718,0.387-1.168
		c0.07-0.39,0.125-0.863,0.156-1.414c0.039-0.531,0.054-1.172,0.054-1.922c0-0.859-0.027-1.57-0.078-2.14
		c-0.059-0.645-0.172-1.145-0.344-1.535c-0.207-0.465-0.488-0.805-0.848-1.012l-0.941-0.289h-0.23c-0.61,0-1.348,0.175-2.25,0.535
		c-0.782,0.308-1.766,0.648-2.953,1.023c-1.184,0.371-2.582,0.711-4.203,1.019c-1.614,0.305-3.485,0.458-5.614,0.458
		c-2.046,0-3.812-0.27-5.254-0.794c-1.402-0.511-2.562-1.266-3.442-2.234c-0.886-0.976-1.543-2.187-1.95-3.598
		c-0.355-1.214-0.554-2.566-0.617-4.019c0-0.016,0-0.027,0-0.039h26.133c1.434,0,2.586-0.461,3.43-1.367
		c0.832-0.886,1.25-2.218,1.25-3.961v-1.988c0-3.184-0.414-6.176-1.23-8.898c-0.825-2.754-2.141-5.18-3.906-7.2
		c-1.77-2.031-4.055-3.636-6.801-4.777c-2.73-1.133-6.043-1.707-9.852-1.707c-3.609,0-6.906,0.606-9.797,1.805
		c-2.91,1.207-5.414,2.977-7.445,5.27c-2.028,2.281-3.59,5.094-4.653,8.359c-1.046,3.234-1.582,6.914-1.582,10.93
		c0,4.211,0.507,7.946,1.507,11.098C336.004,315.851,337.566,318.543,339.645,320.652z M348.594,292.027
		c0.383-1.27,0.938-2.382,1.653-3.305c0.699-0.906,1.586-1.637,2.648-2.176c1.047-0.531,2.317-0.801,3.766-0.801
		c2.89,0,4.957,0.871,6.309,2.668c1.207,1.602,1.816,3.829,1.902,6.543c-0.004,0.137,0.039,0.238,0.035,0.379h-15.711l-1.222-0.012
		C348.074,294.172,348.285,293.066,348.594,292.027z" style="fill: rgb(255, 255, 255);"></path>
	<path class="st0" d="M388.508,308.93c-0.492,0.207-0.887,0.446-1.191,0.734c-0.352,0.324-0.61,0.785-0.79,1.41
		c-0.148,0.523-0.246,1.203-0.301,2.066c-0.054,0.808-0.078,1.906-0.078,3.285c0,1.039,0.042,1.894,0.133,2.57
		c0.098,0.782,0.289,1.379,0.574,1.82c0.454,0.696,1.035,0.891,1.45,0.934l0.214,0.008c0.442,0,0.914-0.129,1.442-0.39
		l38.102-18.879l0.836-0.617l0.137-0.184c0.246-0.34,0.438-0.766,0.582-1.305c0.126-0.465,0.227-1.038,0.301-1.718
		c0.066-0.656,0.102-1.43,0.102-2.328c0-1.79-0.133-3.118-0.406-4.066c-0.325-1.122-0.809-1.817-1.458-2.118l-38.191-19.042
		c-0.562-0.282-1.054-0.442-1.676-0.497l-1.156,0.402l-0.25,0.356c-0.305,0.418-0.504,1.039-0.602,1.886
		c-0.09,0.719-0.133,1.715-0.133,2.985c0,1.418,0.023,2.535,0.078,3.359c0.055,0.898,0.172,1.606,0.363,2.164
		c0.227,0.645,0.57,1.141,1.02,1.477c0.374,0.273,0.843,0.531,1.418,0.785l16.153,7.488l10.175,4.832L388.508,308.93z" style="fill: rgb(255, 255, 255);"></path>
</g>
</svg>
