<!--?xml version="1.0" encoding="utf-8"?-->
<!-- Generator: Adobe Illustrator 18.1.1, SVG Export Plug-In . SVG Version: 6.00 Build 0)  -->

<svg version="1.1" id="_x31_0" xmlns="http://www.w3.org/2000/svg" xmlns:xlink="http://www.w3.org/1999/xlink" x="0px" y="0px" viewBox="0 0 512 512" style="width: 256px; height: 256px; opacity: 1;" xml:space="preserve">
<style type="text/css">
	.st0{fill:#374149;}
</style>
<g>
	<path class="st0" d="M171.457,308.918l10.356-26.195h60.93l10.117,26.195h34.918l-62.614-148.016h-26.25l-44.946,106.649
		l-17.43,41.207h0.066l-0.066,0.16H171.457z M233.77,258.402h-31.211l-11.328-0.058l21.649-53.785l15.359,39.465L233.77,258.402z" style="fill: rgb(255, 255, 255);"></path>
	<path class="st0" d="M310.317,300.395c6.374,6.378,15.59,9.562,27.648,9.562c6.238,0,11.332-0.832,15.282-2.496
		c3.102-1.305,6.058-3.383,8.945-5.883c0.797-0.641,1.586-1.176,2.387-1.886v9.038v0.028l0,0v0.16h26.402v-71.305
		c0-25.5-15.387-38.254-46.153-38.254c-9.011,0-16.426,1.109-22.246,3.328c-5.774,2.199-11.27,6.179-16.497,11.922
		c-0.007,0.008-0.015,0.012-0.023,0.02h0.004c-0.039,0.042-0.078,0.074-0.114,0.113l15.997,15.805l0.93,0.934
		c0.004-0.004,0.004-0.008,0.004-0.008l0.117,0.11c2.906-3.324,5.886-5.715,8.938-7.172c3.046-1.453,6.996-2.183,11.851-2.183
		c7.203,0,12.367,1.355,15.485,4.054c3.121,2.703,4.679,7.039,4.679,12.996v5.406h-25.156c-6.375,0-11.918,0.828-16.629,2.492
		c-4.715,1.66-8.598,3.914-11.641,6.758c-3.05,2.84-5.34,6.164-6.863,9.977c-1.527,3.813-2.285,7.867-2.285,12.164
		c0,4.852,0.758,9.355,2.285,13.508C305.187,293.742,307.406,297.348,310.317,300.395z M343.789,287.922
		c-5.687,0-9.843-1.106-12.476-3.328c-2.633-2.215-3.95-5.196-3.95-8.938c0-8.317,5.336-12.473,16.008-12.473h20.582v5.82
		c0,3.465-0.312,6.274-0.934,8.422c-0.625,2.148-1.702,3.914-3.226,5.297c-2.355,2.218-4.777,3.64-7.274,4.262
		C350.023,287.609,347.114,287.922,343.789,287.922z" style="fill: rgb(255, 255, 255);"></path>
	<rect x="139.336" y="338.422" class="st0" width="248.844" height="12.679" style="fill: rgb(255, 255, 255);"></rect>
	<path class="st0" d="M474.718,68.379H37.282C16.691,68.379,0,85.074,0,105.664V406.34c0,20.594,16.691,37.282,37.282,37.282
		h437.437c20.59,0,37.282-16.688,37.282-37.282V105.664C512,85.074,495.309,68.379,474.718,68.379z M37.34,274.34
		C27.211,274.34,19,266.132,19,256c0-10.129,8.211-18.339,18.34-18.339c10.133,0,18.343,8.21,18.343,18.339
		C55.683,266.132,47.473,274.34,37.34,274.34z M446.039,405.582v0.758H74.566V105.664h371.473V405.582z" style="fill: rgb(255, 255, 255);"></path>
</g>
</svg>
