<!--?xml version="1.0" encoding="utf-8"?-->
<!-- Generator: Adobe Illustrator 19.1.1, SVG Export Plug-In . SVG Version: 6.00 Build 0)  -->
<svg version="1.1" id="_x31_0" xmlns="http://www.w3.org/2000/svg" xmlns:xlink="http://www.w3.org/1999/xlink" x="0px" y="0px" viewBox="0 0 512 512" style="width: 256px; height: 256px; opacity: 1;" xml:space="preserve">
<style type="text/css">
	.st0{fill:#374149;}
</style>
<g>
	<path class="st0" d="M428.715,248.651c1.622-28.293-8.152-53.199-22.691-76.73c-8.242-13.34-17.145-26.316-21.402-41.722
		c-6.11-22.184,2.882-43.586,22.844-54.074c5.774-3.028,12.144-3.547,19.461-4.41l1.39-0.051c-0.042-0.034-0.078-0.066-0.125-0.098
		c0.078-0.011,0.149-0.019,0.226-0.027c-7.523-5.902-14.031-11.363-20.894-16.336c-24.274-17.535-50.894-30.512-79.672-38.515
		c-31.29-8.723-63.238-11.962-95.735-8.844c-37.015,3.539-71.758,14.121-104.16,32.465C94.714,59.159,66.96,84.002,44.987,115.3
		c-0.719,1.019-2.219,1.949-1.649,3.21c0.687,1.614,2.547,0.719,3.836,0.782c15.438,0.445,30.844-0.125,46.25-0.902
		c11.117-0.57,22.214-1.562,33.301-1.918c7.797-0.242,12.23,5.035,10.914,12.078c-0.934,4.883-3.988,7.523-10.285,8.153
		c-8.211,0.839-16.457,1.531-24.699,2.038c-2.875,0.176-3.504,0.989-2.457,3.778c2.367,6.203,88.812,256.876,92.203,266.528
		c5.754-16.812,42.082-122.832,54.851-160.18c0.598-1.738,1.258-3.301,0.446-5.426c-12.762-33.661-25.442-67.321-38-101.043
		c-1.023-2.79-2.43-3.512-5.125-3.715c-8.215-0.629-16.52-0.871-24.61-2.546c-0.554-0.114-1.047-0.305-1.551-0.485
		c-0.437-0.152-0.859-0.32-1.258-0.523c-0.871-0.442-1.633-0.989-2.293-1.618c-0.363-0.347-0.695-0.718-0.996-1.121
		c-1.906-2.574-2.375-6.078-0.918-9.656c1.86-4.676,5.422-6.653,12.078-6.325c16.035,0.84,32.043,1.918,48.074,2.61
		c27.519,1.199,54.973-0.691,82.434-2.519c2.996-0.211,6.055-0.539,8.902,0.87c4.348,2.126,6.024,5.782,5.274,11.122
		c-0.629,4.285-3.922,7.461-9.293,8.058c-8.18,0.934-16.426,1.649-24.668,2.102c-3.473,0.18-4.344,1.137-3.149,4.469
		c2.817,7.746,75.466,218.29,89.043,257.45c0.989,2.941,1.664,5,1.906,5.828l0.074-0.137c0.015,0.046,0.058,0.164,0.07,0.207
		c0.629-1.29,0.988-1.77,1.141-2.336c12.496-40.618,25.144-81.169,37.347-121.876C425.445,271.351,428.086,260.163,428.715,248.651z
		" style="fill: rgb(255, 255, 255);"></path>
	<path class="st0" d="M494.121,164.218c-2.734-6.418-5.89-12.558-9.234-18.558c-1.187-2.211-2.328-4.461-3.554-6.629l0.016,0.324
		c-0.063-0.106-0.118-0.215-0.18-0.317c0.125,2.282,0.183,4.172,0.336,6.059c2.305,24.965,2.305,45.18-7.29,73.523
		c-10.492,31.012-85.39,241.47-89.258,252.474c59.047-34.168,95.887-83.774,113.867-136.715c0.305-0.836,0.57-1.707,0.84-2.57
		C518.426,274.495,515.16,213.526,494.121,164.218z" style="fill: rgb(255, 255, 255);"></path>
	<path class="st0" d="M22.175,155.714c-0.019,0.043-0.035,0.082-0.054,0.126c-0.031-0.063-0.078-0.165-0.094-0.192
		c-3.382,7.43-6.355,14.926-8.871,22.387c-19.066,55.398-16.304,110.879,1.196,159.551c0.031,0.062,0.031,0.121,0.062,0.183
		c22.992,63.966,71.367,116.239,128.95,141.298c-0.602-3.586-99.278-267.024-118.227-315.712
		C23.362,158.702,22.295,155.948,22.175,155.714z" style="fill: rgb(255, 255, 255);"></path>
	<path class="st0" d="M261.132,279.351c-0.39,0.031-0.754,0.058-1.11,0.09c-0.718,1.918-1.472,3.832-2.129,5.758
		c-11.301,32.161-22.57,64.294-33.93,96.426c-12.977,36.774-25.988,73.523-39.118,110.242c-0.902,2.578-0.507,3.625,2.161,4.344
		c16.449,4.438,33.238,7.371,50.144,8.48c35.036,2.328,69.36-1.77,102.798-13.32c0.125-0.039,0.25-0.066,0.371-0.11l-0.004-0.008
		c0.05-0.015,0.102-0.031,0.156-0.046C314.003,420.527,287.566,349.941,261.132,279.351z" style="fill: rgb(255, 255, 255);"></path>
</g>
</svg>
