<!--?xml version="1.0" encoding="utf-8"?-->
<!-- Generator: Adobe Illustrator 24.1.1, SVG Export Plug-In . SVG Version: 6.00 Build 0)  -->
<svg version="1.1" id="_x31_0" xmlns="http://www.w3.org/2000/svg" xmlns:xlink="http://www.w3.org/1999/xlink" x="0px" y="0px" viewBox="0 0 512 512" style="width: 256px; height: 256px; opacity: 1;" xml:space="preserve">
<style type="text/css">
	.st0{fill:#374149;}
</style>
<g>
	<path class="st0" d="M468.547,103.164H329.285l-9.246-26.238c-6.102-17.434-22.602-29.039-41.078-29.035H140.774
		c-23.973,0.012-43.442,19.481-43.454,43.457v41.977H43.519C19.55,133.336,0.016,152.801,0,176.844v246.77
		c0.012,22.375,18.203,40.489,40.562,40.496H374.25c22.359-0.003,40.488-18.133,40.496-40.496v-45.004l56.758,0.004
		c22.359-0.004,40.488-18.137,40.496-40.5V146.621C511.988,122.648,492.516,103.176,468.547,103.164z M371.293,194.758H227.934
		l-0.367-0.25l-10.59-30.034c-5.23-14.962-19.387-24.993-35.207-24.993h-59.828V91.348c0-10.406,8.426-18.836,18.832-18.836h138.187
		c8.062,0,15.203,5.047,17.856,12.618l10.586,30.039c2.645,7.507,9.785,12.617,17.785,12.617h143.36
		c10.402,0,18.832,8.434,18.832,18.836v191.492c0,8.805-7.074,15.883-15.875,15.883H408.59V232.121
		C408.59,211.559,391.851,194.758,371.293,194.758z M24.621,176.844c0-10.402,8.493-18.898,18.898-18.898h59.954h9.234h9.234h59.828
		c8,0,15.141,5.047,17.785,12.622l10.594,30.039c2.644,7.57,9.785,12.617,17.785,12.617h64.012L139.59,365.586l-6.511,6.508
		L67.836,437.34l2.152,2.152H40.562c-8.801,0-15.942-7.141-15.942-15.879V176.844z M141.324,372.461l9.234-9.23l9.234-9.234
		l138.622-138.558l2.542-2.215h70.336c10.398,0,18.832,8.492,18.832,18.898v121.875v9.234v9.23v51.152
		c0,8.738-7.074,15.879-15.874,15.879H74.297L141.324,372.461z" style="fill: rgb(255, 255, 255);"></path>
</g>
</svg>
