<?xml version="1.0" encoding="UTF-8"?>
<svg id="_2" data-name="2" xmlns="http://www.w3.org/2000/svg" viewBox="0 0 512 453.69">
  <defs>
    <style>
      .cls-1 {
        fill: #fff;
      }
    </style>
  </defs>
  <polygon class="cls-1" points="374.11 419.68 34.01 419.68 34.01 164.95 164.95 164.95 164.95 34.01 374.11 34.01 374.11 67.54 408.12 34.89 408.12 0 164.95 0 34.01 130.94 0 164.95 0 453.69 408.12 453.69 408.12 253.44 374.11 288.88 374.11 419.68"/>
  <path class="cls-1" d="m508.61,89.62l-51.33-51.32c-4.52-4.52-11.85-4.52-16.37,0l-216.7,208.11c-1.34,1.34-2.34,3-2.89,4.82l-26.21,86.12c-2.7,8.86,5.59,17.14,14.45,14.45l88.89-27.05,210.16-218.74c4.52-4.52,4.52-11.85,0-16.37Zm-264.62,230.55l-16.88-18.45,11.7-38.45,29.14,15.68,15.68,29.14-39.64,12.07Zm232.05-238.75l-184.62,185.8-11.73-11.73,185.8-184.63,10.55,10.55s0,.01,0,.02Z"/>
</svg>