<!--?xml version="1.0" encoding="utf-8"?-->
<!-- Generator: Adobe Illustrator 24.1.1, SVG Export Plug-In . SVG Version: 6.00 Build 0)  -->
<svg version="1.1" id="_x31_0" xmlns="http://www.w3.org/2000/svg" xmlns:xlink="http://www.w3.org/1999/xlink" x="0px" y="0px" viewBox="0 0 512 512" style="width: 256px; height: 256px; opacity: 1;" xml:space="preserve">
<style type="text/css">
	.st0{fill:#374149;}
</style>
<g>
	<path class="st0" d="M62.133,319.523c3.226,9.852,7.199,19.45,11.863,28.664l-20.988,54.234l-3.543,9.149l6.934,6.93l37.106,37.098
		l6.938,6.942l9.148-3.543l54.164-20.988c9.242,4.679,18.86,8.656,28.727,11.867l23.48,53.156L219.93,512h9.809h52.457h9.813
		l3.961-8.969l23.484-53.156c9.871-3.211,19.489-7.188,28.727-11.867l54.164,20.988l9.152,3.543l6.938-6.942l37.098-37.098
		l6.938-6.93l-3.539-9.149l-20.992-54.234c4.664-9.206,8.637-18.804,11.863-28.656l53.218-23.492l8.981-3.965v-9.809v-52.527v-9.817
		l-8.981-3.957l-53.218-23.484c-3.222-9.856-7.199-19.45-11.863-28.661l20.992-54.238l3.539-9.145l-6.938-6.938l-37.098-37.094
		l-6.938-6.942l-9.152,3.543L348.18,74c-9.234-4.676-18.852-8.652-28.727-11.875L295.969,8.973L292.008,0h-9.813h-52.457h-9.809
		l-3.969,8.973l-23.48,53.152c-9.871,3.223-19.489,7.199-28.727,11.875L109.59,53.008l-9.148-3.543l-6.938,6.942L56.398,93.5
		l-6.934,6.938l3.543,9.145L74,163.82c-4.668,9.211-8.645,18.805-11.867,28.661l-53.16,23.484L0,219.93v9.809v52.527v9.809
		l8.973,3.965L62.133,319.523z M90.519,164.789l-23.469-60.64l37.098-37.094l60.566,23.469c12.168-6.71,25.133-12.102,38.762-16.023
		l26.262-59.438h52.457L308.457,74.5c13.629,3.922,26.594,9.313,38.758,16.023l60.57-23.469l37.102,37.094l-23.472,60.64
		c6.718,12.161,12.102,25.126,16.023,38.692l59.504,26.258v52.527l-59.504,26.258c-3.922,13.566-9.305,26.531-16.023,38.692
		l23.472,60.64l-37.102,37.094l-60.57-23.462c-12.165,6.711-25.13,12.094-38.758,16.012l-26.262,59.446h-52.457L203.477,437.5
		c-13.629-3.918-26.594-9.301-38.762-16.012l-60.566,23.462L67.05,407.855l23.469-60.64c-6.714-12.161-12.102-25.126-16.023-38.692
		l-59.438-26.258v-52.527l59.438-26.258C78.418,189.914,83.805,176.95,90.519,164.789z" style="fill: rgb(255, 255, 255);"></path>
	<path class="st0" d="M256.027,375.875c66.188-0.004,119.817-53.692,119.821-119.875c-0.004-66.18-53.633-119.867-119.821-119.875
		C189.789,136.133,136.152,189.82,136.149,256C136.152,322.183,189.789,375.871,256.027,375.875z M256.027,360.82
		c-28.98-0.007-55.137-11.73-74.129-30.71c-18.977-18.996-30.687-45.153-30.691-74.11c0.004-28.957,11.714-55.114,30.691-74.11
		c18.992-18.98,45.149-30.703,74.129-30.707c28.954,0.004,55.098,11.727,74.078,30.707c18.969,18.993,30.679,45.153,30.683,74.11
		c-0.004,28.957-11.714,55.117-30.683,74.11C311.125,349.09,284.981,360.813,256.027,360.82z" style="fill: rgb(255, 255, 255);"></path>
</g>
</svg>
