<!--?xml version="1.0" encoding="utf-8"?-->
<!-- Generator: Adobe Illustrator 24.1.1, SVG Export Plug-In . SVG Version: 6.00 Build 0)  -->
<svg version="1.1" id="_x31_0" xmlns="http://www.w3.org/2000/svg" xmlns:xlink="http://www.w3.org/1999/xlink" x="0px" y="0px" viewBox="0 0 512 512" style="width: 256px; height: 256px; opacity: 1;" xml:space="preserve">
<style type="text/css">
	.st0{fill:#374149;}
</style>
<g>
	<path class="st0" d="M183.676,380.561h0.805v16.957c0,25.203-11.36,31.844-19.922,34.641c-3.84,1.281-7.359,1.679-9.519,1.839
		c-11.84,0.402-21.359,10.402-21.359,22.563v15.437c0,12.563,10.16,22.723,22.64,22.723h199.36c12.48,0,22.64-10.16,22.64-22.723
		v-15.437c0-12.242-9.602-22.161-21.762-22.641c-1.84-0.082-5.277-0.481-9.039-1.762c-8.64-2.797-20-9.438-20-34.641v-16.957
		h140.559h17.281c14.641,0,26.641-12,26.641-26.641v-17.199v-31.442V61.201V43.92c0-14.641-12-26.641-26.641-26.641h-17.281H43.84
		H26.641C12,17.279,0,29.279,0,43.92v17.281v244.078v31.442v17.199c0,14.641,12,26.641,26.641,26.641H43.84H183.676z
		 M358.32,471.998c0,1.52-1.199,2.723-2.64,2.723H156.32c-1.519,0-2.64-1.203-2.64-2.723v-15.437c0-1.36,1.038-2.563,2.48-2.641
		c1.758-0.082,4.238-0.321,7.278-0.879h185.043c3.038,0.558,5.519,0.797,7.277,0.879c1.524,0.078,2.562,1.281,2.562,2.641V471.998z
		 M307.519,380.561v16.957c0,11.859,2.176,21.129,5.535,28.535c0.028,0.058,0.051,0.117,0.078,0.176
		c0.84,1.839,1.754,3.558,2.738,5.164c0.16,0.266,0.312,0.531,0.477,0.789c0.902,1.406,1.851,2.714,2.839,3.946
		c0.363,0.457,0.719,0.922,1.102,1.367c0.79,0.902,1.602,1.73,2.434,2.538c0.723,0.719,1.438,1.442,2.207,2.118
		c0.125,0.106,0.258,0.195,0.383,0.297c1.183,1.012,2.382,2.008,3.683,2.914h-80.363l-65.656-0.133
		c11.289-7.551,21.504-21.606,21.504-47.711v-16.957h102.57H307.519z M496,305.279v48.641c0,5.758-4.879,10.641-10.641,10.641
		h-157.84h-20H204.481h-20H26.641c-5.762,0-10.641-4.883-10.641-10.641v-48.641h168.481h20h103.038h20h167.489H496z M153.359,45.362
		L25.121,180.24c-2.402,2.558-6.48,0.801-6.48-2.801V51.041c0-6.882,5.277-12.48,11.84-12.48h120.16
		C154,38.561,155.68,42.881,153.359,45.362z" style="fill: rgb(255, 255, 255);"></path>
</g>
</svg>
