<!--?xml version="1.0" encoding="utf-8"?-->
<!-- Generator: Adobe Illustrator 21.1.0, SVG Export Plug-In . SVG Version: 6.00 Build 0)  -->
<svg version="1.1" id="_x31_0" xmlns="http://www.w3.org/2000/svg" xmlns:xlink="http://www.w3.org/1999/xlink" x="0px" y="0px" viewBox="0 0 512 512" style="width: 256px; height: 256px; opacity: 1;" xml:space="preserve">
<style type="text/css">
	.st0{fill:#374149;}
</style>
<g>
	<polygon class="st0" points="511.89,284.211 511.89,284.207 512,284.207 413.582,185.567 413.582,76.152 358.82,76.152 
		358.82,108.152 358.711,121.348 358.578,126.762 358.438,130.422 256.77,28.426 256.406,28.125 256.11,27.777 256.11,27.766 
		256,27.656 185.734,98.036 188.043,100.785 220.851,141.117 223.946,144.934 223.95,144.93 224,144.992 255.23,113.648 
		256,112.879 424.687,282.008 424.687,449.816 226.566,449.816 225.43,449.812 225.43,285.297 225.43,284.289 225.43,284.289 
		225.43,284.207 147.351,284.207 147.351,448.883 147.351,449.816 87.598,449.816 87.313,449.812 87.313,282.008 138.832,230.387 
		143.676,225.547 143.668,225.543 143.726,225.484 99.41,188.976 96.992,186.996 40.469,243.629 2.859,281.348 0.11,283.988 
		0.11,284.078 0.047,284.14 0.058,284.148 0,284.207 50.805,318.625 52.016,317.418 52.508,316.996 52.785,316.812 52.785,484.344 
		459.215,484.344 459.215,345.348 459.348,328.293 459.488,316.918 461.309,318.625 503.863,289.704 510.484,285.231 
		511.778,284.375 511.89,284.316 511.89,284.297 511.946,284.266 	" style="fill: rgb(255, 255, 255);"></polygon>
	<path class="st0" d="M332.317,301.582l-25.18,11.215l-5.719,2.641l-8.359,3.738l-28.699,61.91v0.058l-0.297,0.637l0.023,0.016
		l-0.058,0.058l82.145,37.938l42.226-91.379l0.332-0.55l0.066-0.137l0.008-0.012l0,0l0.035-0.07L332.317,301.582z M334.848,389.113
		l-40.028-18.582l23.199-50.145l40.028,18.582l-23.106,49.941L334.848,389.113z" style="fill: rgb(255, 255, 255);"></path>
	<polygon class="st0" points="167.149,201.953 185.625,217.129 191.672,222.188 194.859,222.625 254.133,230.875 287.89,285.305 
		293.61,282.777 273.156,214.16 271.946,210.2 265.129,207.121 213.992,184.907 200.578,168.414 165.539,125.496 162.477,121.735 
		162.469,121.739 162.418,121.68 124.758,159.242 120.465,163.512 120.473,163.516 120.414,163.574 	" style="fill: rgb(255, 255, 255);"></polygon>
</g>
</svg>
