<!--?xml version="1.0" encoding="utf-8"?-->
<!-- Generator: Adobe Illustrator 18.1.1, SVG Export Plug-In . SVG Version: 6.00 Build 0)  -->

<svg version="1.1" id="_x31_0" xmlns="http://www.w3.org/2000/svg" xmlns:xlink="http://www.w3.org/1999/xlink" x="0px" y="0px" viewBox="0 0 512 512" style="width: 256px; height: 256px; opacity: 1;" xml:space="preserve">
<style type="text/css">
	.st0{fill:#374149;}
</style>
<g>
	<path class="st0" d="M394.228,404.231l-186.089-72.27L41.077,266.93l0.226,0.242l-0.343-0.133l100.691,107.863L260.534,502.43
		c8.461,9.035,22.617,9.492,31.722,1.058l63.914-59.691l26.699-24.844l14.59-13.453c-0.035-0.008-0.063-0.023-0.094-0.031
		l0.133-0.125C396.35,405.055,395.323,404.656,394.228,404.231z" style="fill: rgb(255, 255, 255);"></path>
	<path class="st0" d="M496.131,148.817L315.503,78.603L123.62,4.009c-2.871-1.117-5.875-1.5-8.875-1.515
		c-0.047,0-0.09-0.016-0.133-0.016s-0.086,0.012-0.125,0.012c-3.508,0.019-6.938,0.762-10.164,2.238
		c-0.114,0.055-0.219,0.114-0.329,0.165c-1.015,0.484-2.062,0.87-3.015,1.496L11.245,75.783c-8.89,5.82-13.098,16.652-10.473,26.953
		l19.344,111.797c1.985,7.785,7.606,14.133,15.094,17.042l191.882,74.59l180.629,70.219c12.804,4.976,27.218-1.371,32.191-14.18
		l35.195-90.594l35.199-90.594C515.279,168.211,508.931,153.794,496.131,148.817z M65.147,118.372
		c-1.297,1.332-2.832,2.39-4.504,3.137c-0.039,0.019-0.078,0.042-0.121,0.062c-3.418,1.492-7.398,1.691-11.149,0.234
		c-7.527-2.926-11.254-11.402-8.332-18.93c2.926-7.527,11.398-11.258,18.922-8.332c7.527,2.926,11.258,11.398,8.332,18.926
		c-0.731,1.882-1.809,3.523-3.13,4.886C65.163,118.36,65.155,118.368,65.147,118.372z M423.076,221.938
		c-0.782,4.207-1.848,8.309-3.191,12.309c-1.535,4.238-3.219,8.844-5.176,13.886c-1.957,5.039-3.828,9.578-5.481,13.555
		c-1.789,4.054-3.777,7.805-5.937,11.234c-2.352,3.562-4.946,6.558-7.762,8.976c-2.949,2.61-6.578,4.794-10.742,6.458
		c-5.118,2.254-10.918,3.511-17.118,3.679c-6.206,0.02-12.664-1.277-19.289-3.855c-6.687-2.598-12.355-6.016-16.851-10.156
		c-4.512-4.297-8.004-9.157-10.438-14.489c-1.867-4.054-3.027-8.082-3.438-11.957c-0.453-3.785-0.309-7.774,0.442-11.797
		c0.75-4.16,1.859-8.285,3.289-12.238c1.344-4,3.039-8.652,5.016-13.738c1.965-5.054,3.866-9.664,5.648-13.699
		c1.554-3.742,3.461-7.422,5.797-11.167c2.125-3.367,4.691-6.391,7.637-8.993c2.77-2.449,6.222-4.566,10.562-6.476
		c5.754-2.363,11.61-3.547,17.492-3.566c5.922-0.122,12.254,1.152,19.286,3.886c6.874,2.672,12.531,6.094,16.808,10.172
		c4.301,4.015,7.754,8.828,10.234,14.277c1.973,4.286,3.133,8.215,3.535,11.997C423.799,213.985,423.69,217.923,423.076,221.938z
		 M326.928,158.798l-6.027,15.515c-0.966,2.485-3.758,3.711-6.242,2.746l-37.934-14.746c-2.481-0.965-5.278,0.266-6.242,2.75
		l-2.445,6.293c-0.965,2.485,0.266,5.282,2.746,6.246l30.985,12.038c2.48,0.969,3.71,3.762,2.746,6.246l-6.027,15.516
		c-0.965,2.484-3.758,3.714-6.242,2.746l-30.98-12.039c-2.481-0.969-5.278,0.266-6.242,2.746l-2.77,7.129
		c-0.965,2.485,0.266,5.278,2.75,6.242l37.934,14.75c2.484,0.961,3.714,3.758,2.75,6.238l-5.996,15.43
		c-0.961,2.481-3.758,3.711-6.238,2.746l-65.222-25.352c-2.484-0.969-3.711-3.762-2.75-6.242l37.238-95.848
		c0.965-2.484,3.758-3.714,6.242-2.75l65.222,25.355C326.663,153.52,327.893,156.313,326.928,158.798z M231.561,129.547
		l-25.824,10.618l-1.664-3.39c-1.91-3.887-4.254-6.633-7.387-8.649c-3.566-2.324-6.957-4.113-10.082-5.328
		c-4.746-1.844-8.512-2.211-11.195-1.086c-2.754,1.214-4.531,2.98-5.516,5.519c-0.343,0.875-0.531,1.882-0.535,2.832
		c-0.023,0.95,0.133,1.793,0.477,2.652c0.734,1.176,1.512,2.188,2.434,3.157c0.828,0.785,2.336,1.84,4.469,3.086l12.293,6.902
		c5.418,3.09,9.242,5.742,12.054,8.371c3.199,2.988,5.653,6.293,7.294,9.82c2.144,4.098,3.25,8.778,3.187,13.73
		c-0.199,4.922-1.266,9.754-3.262,14.887c-2.222,5.718-5.394,10.41-9.43,13.934c-3.981,3.538-8.703,6.09-14.008,7.55
		c-5.114,1.406-10.578,1.844-16.714,1.34c-6.161-0.622-12.024-2.047-18-4.367c-8.633-3.359-16.047-7.492-22.035-12.289
		c-6.168-4.938-11.125-11.41-14.734-19.238l-1.754-3.797l-0.003-0.012l26.402-10.988l1.645,3.48
		c1.973,4.172,4.637,7.492,8.145,10.157c3.457,2.652,7.683,4.953,12.582,6.859c5.578,2.168,10.238,2.91,13.473,2.152
		c2.836-0.722,4.718-2.434,5.855-5.359c1.008-2.598,1.059-4.902,0.153-6.844c-0.485-0.874-1.122-1.71-1.825-2.32
		c-0.734-0.606-2.266-1.715-5.015-3.23l-12.285-7.027c-4.731-2.594-8.786-5.493-11.997-8.578c-3.156-2.977-5.613-6.301-7.476-10.137
		c-3.817-7.863-3.782-16.93,0.109-26.945c2.082-5.36,4.879-9.711,8.543-13.305c3.688-3.614,8.023-6.313,12.894-8.027
		c4.879-1.711,10.282-2.442,16.058-2.16c5.731,0.281,11.657,1.64,18.118,4.152c7.938,3.082,14.621,6.832,19.867,11.141
		c5.426,4.457,9.77,10.144,12.91,16.906l1.758,3.778L231.561,129.547z" style="fill: rgb(255, 255, 255);"></path>
	<path class="st0" d="M382.873,199.63c-0.027-0.012-0.05-0.02-0.078-0.031c-2.39-0.93-4.726-1.352-6.945-1.254
		c-2.321,0.141-4.226,0.59-5.778,1.375c-1.34,0.598-2.293,1.215-3.039,1.926c-0.98,0.894-1.992,2.199-2.93,3.75
		c-1.218,1.851-2.434,4.453-3.785,7.426c-1.45,3.191-3.153,7.297-5.054,12.207c-1.918,4.93-3.422,9.074-4.473,12.316
		c-1.008,3.082-1.863,5.793-2.192,7.871c-0.374,1.894-0.492,3.426-0.37,4.711c0.078,1.137,0.363,2.234,0.867,3.371
		c0.738,1.816,1.906,3.586,3.515,5.363c1.328,1.418,3.25,2.621,5.832,3.625c2.551,0.988,4.687,1.378,6.722,1.222
		c2.141-0.168,4.086-0.676,5.946-1.558c1.098-0.488,1.996-1.098,2.855-1.918c1.157-0.957,2.141-2.359,3.07-3.762
		c0.918-1.523,2.09-3.762,3.84-7.347c1.355-2.981,3.043-7.055,4.969-12.008c1.914-4.93,3.434-9.106,4.512-12.422
		c0.816-2.797,1.671-5.809,2.125-8.066c0.246-1.582,0.48-3.348,0.312-4.45c-0.144-1.965-0.527-3.16-1.238-4.438
		C389.607,204.028,386.607,201.095,382.873,199.63z" style="fill: rgb(255, 255, 255);"></path>
</g>
</svg>
