<!--?xml version="1.0" encoding="utf-8"?-->
<!-- Generator: Adobe Illustrator 18.1.1, SVG Export Plug-In . SVG Version: 6.00 Build 0)  -->

<svg version="1.1" id="_x31_0" xmlns="http://www.w3.org/2000/svg" xmlns:xlink="http://www.w3.org/1999/xlink" x="0px" y="0px" viewBox="0 0 512 512" style="width: 256px; height: 256px; opacity: 1;" xml:space="preserve">
<style type="text/css">
	.st0{fill:#374149;}
</style>
<g>
	<polygon class="st0" points="117.004,225.82 117.004,254 394.992,254 394.992,226.074 394.992,225.988 394.992,225.828 	" style="fill: rgb(255, 255, 255);"></polygon>
	<path class="st0" d="M241.906,190.742v24.422h28.168v-24.422h36.106h0.218h0.164v-90.73H205.422v90.73h36.422H241.906z
		 M232.016,126.61h47.949v37.461h-47.949V126.61z" style="fill: rgb(255, 255, 255);"></path>
	<path class="st0" d="M200.402,289.332v-24.114v-0.148v-0.16H172.23v24.422h-36.102h-0.222h-0.16v90.215v0.277v0.16h101.14v-90.652
		h-36.422H200.402z M210.289,353.39h-47.945V315.93h47.945V353.39z" style="fill: rgb(255, 255, 255);"></path>
	<path class="st0" d="M339.75,289.332V264.91h-28.168v24.422h-36.106h-0.219h-0.164v90.652h101.141v-90.652h-36.422H339.75z
		 M349.641,353.39h-47.95V315.93h47.95V353.39z" style="fill: rgb(255, 255, 255);"></path>
	<path class="st0" d="M256,0C114.614,0,0,114.614,0,256s114.614,256,256,256c141.383,0,256-114.614,256-256S397.383,0,256,0z
		 M256,448c-105.871,0-192-86.129-192-192S150.129,64,256,64c105.867,0,192,86.129,192,192S361.867,448,256,448z" style="fill: rgb(255, 255, 255);"></path>
</g>
</svg>
