<?xml version="1.0" encoding="utf-8"?>
<!-- Generator: Adobe Illustrator 27.6.1, SVG Export Plug-In . SVG Version: 6.00 Build 0)  -->
<svg version="1.1" id="design" xmlns="http://www.w3.org/2000/svg" xmlns:xlink="http://www.w3.org/1999/xlink" x="0px" y="0px"
	 viewBox="0 0 72.8 90.2" style="enable-background:new 0 0 72.8 90.2;" xml:space="preserve">
<style type="text/css">
	.st0{fill:#FFFFFF;stroke:#000000;stroke-width:4;stroke-linecap:round;stroke-linejoin:round;stroke-miterlimit:10;}
	.st1{fill:none;stroke:#000000;stroke-width:5;stroke-linecap:round;stroke-linejoin:round;stroke-miterlimit:10;}
</style>
<g>
	<g>
		<line class="st0" x1="21.5" y1="40.9" x2="26.3" y2="49.1"/>
		<line class="st0" x1="30" y1="39.8" x2="33.8" y2="46.3"/>
		<line class="st0" x1="38.3" y1="37.8" x2="42.1" y2="44.3"/>
	</g>
	<path class="st0" d="M6.6,71c-2.7-0.9-4.2-3.9-3.3-6.6l0,0c0.9-2.7,3.8-4.2,6.5-3.3l14,4.6L2.7,30c-1.5-2.5-0.7-5.8,1.9-7.3l0,0
		c2.5-1.5,5.8-0.7,7.3,1.9L22,41.7c0.4-1,1.1-2,2.1-2.6v0c1.9-1.1,4.3-0.8,5.9,0.7c0.3-1.1,1.1-2.2,2.2-2.8l0,0
		c2-1.2,4.5-0.8,6.1,0.9c0.4-1,1-1.8,2-2.4c2.2-1.3,5.1-0.3,6.3,1.8l7.8,13.3c1.1,1.9,2,4,2.5,6.2L59.3,67l4,6.8L38.9,88.2l-3.3-5.6
		L6.6,71z"/>
	<g>
		<line class="st0" x1="21.5" y1="40.9" x2="26.3" y2="49.1"/>
		<line class="st0" x1="30" y1="39.8" x2="33.8" y2="46.3"/>
		<line class="st0" x1="38.3" y1="37.8" x2="42.1" y2="44.3"/>
	</g>
</g>
<g>
	<line class="st1" x1="54.2" y1="8.6" x2="45.4" y2="23.9"/>
	<line class="st1" x1="32.7" y1="2.5" x2="32.7" y2="20.1"/>
	<line class="st1" x1="70.3" y1="24.2" x2="55" y2="33"/>
</g>
</svg>
