<svg id="WEBページのアイコン素材" xmlns="http://www.w3.org/2000/svg" width="24.154" height="21.748" viewBox="0 0 24.154 21.748">
  <path id="パス_5" data-name="パス 5" d="M22.951,25.5H1.2A1.2,1.2,0,0,0,0,26.7V46.041a1.2,1.2,0,0,0,1.2,1.2H22.951a1.2,1.2,0,0,0,1.2-1.2V26.7A1.2,1.2,0,0,0,22.951,25.5Zm-2.921,2.43a1.35,1.35,0,1,1-1.35,1.35A1.35,1.35,0,0,1,20.03,27.926Zm-4.271,0a1.35,1.35,0,1,1-1.35,1.35A1.35,1.35,0,0,1,15.759,27.926Zm-4.271,0a1.35,1.35,0,1,1-1.35,1.35A1.35,1.35,0,0,1,11.488,27.926ZM22.141,45.231H2.013V32.541H22.141Z" transform="translate(0 -25.496)" fill="#fff"/>
  <rect id="長方形_35" data-name="長方形 35" width="10.678" height="2.152" transform="translate(4.124 9.164)" fill="#fff"/>
  <rect id="長方形_36" data-name="長方形 36" width="15.906" height="2.152" transform="translate(4.124 13.484)" fill="#fff"/>
</svg>
