<svg id="メールの無料アイコンその5" xmlns="http://www.w3.org/2000/svg" width="24.154" height="17.121" viewBox="0 0 24.154 17.121">
  <path id="パス_4" data-name="パス 4" d="M21.337,74.535H2.817A2.816,2.816,0,0,0,0,77.351V88.84a2.816,2.816,0,0,0,2.817,2.816h18.52a2.817,2.817,0,0,0,2.817-2.816V77.351A2.817,2.817,0,0,0,21.337,74.535ZM22.809,89.6l-.536.635-7.509-6.128L13.6,85.212a2.253,2.253,0,0,1-3.048,0L9.39,84.105,1.881,90.234,1.345,89.6l7.05-6.44L1.3,76.49l.42-.556,10.358,7.849,10.358-7.849.419.556-7.1,6.669Z" transform="translate(0 -74.535)" fill="#fff"/>
</svg>
