<?xml version="1.0" encoding="utf-8"?>
<!-- Generator: Adobe Illustrator 27.6.1, SVG Export Plug-In . SVG Version: 6.00 Build 0)  -->
<svg version="1.1" id="レイヤー_1" xmlns="http://www.w3.org/2000/svg" xmlns:xlink="http://www.w3.org/1999/xlink" x="0px"
	 y="0px" viewBox="0 0 36 36" style="enable-background:new 0 0 36 36;" xml:space="preserve">
<style type="text/css">
	.st0{fill:url(#SVGID_1_);}
	.st1{fill:url(#SVGID_00000108291103309509697870000004099251144080902310_);}
	.st2{fill:#FFFFFF;}
</style>
<g>
	
		<radialGradient id="SVGID_1_" cx="13.39" cy="-0.1352" r="44.899" gradientTransform="matrix(1 0 0 -1 0 35.9098)" gradientUnits="userSpaceOnUse">
		<stop  offset="0" style="stop-color:#FFDD55"/>
		<stop  offset="0.328" style="stop-color:#FF543F"/>
		<stop  offset="0.348" style="stop-color:#FC5245"/>
		<stop  offset="0.504" style="stop-color:#E64771"/>
		<stop  offset="0.643" style="stop-color:#D53E91"/>
		<stop  offset="0.761" style="stop-color:#CC39A4"/>
		<stop  offset="0.841" style="stop-color:#C837AB"/>
	</radialGradient>
	<path class="st0" d="M28,36L8,36c-4.4,0-8-3.6-8-8L0,8c0-4.4,3.6-8,8-8l20,0c4.4,0,8,3.6,8,8l0,20C36,32.4,32.4,36,28,36z"/>
	
		<radialGradient id="SVGID_00000103947001305360612970000012683553497113802125_" cx="5.796" cy="-162.4679" r="29.813" gradientTransform="matrix(1 0 0 -0.6663 0 -108.702)" gradientUnits="userSpaceOnUse">
		<stop  offset="0" style="stop-color:#4168C9"/>
		<stop  offset="0.999" style="stop-color:#4168C9;stop-opacity:0"/>
	</radialGradient>
	<path style="fill:url(#SVGID_00000103947001305360612970000012683553497113802125_);" d="M28,36L8,36c-4.4,0-8-3.6-8-8L0,8
		c0-4.4,3.6-8,8-8l20,0c4.4,0,8,3.6,8,8l0,20C36,32.4,32.4,36,28,36z"/>
	<path class="st2" d="M18,25c-3.9,0-7-3.1-7-7s3.1-7,7-7s7,3.1,7,7S21.9,25,18,25z M18,13c-2.8,0-5,2.2-5,5s2.2,5,5,5s5-2.2,5-5
		S20.8,13,18,13z"/>
	<circle class="st2" cx="25.5" cy="10.5" r="1.5"/>
	<path class="st2" d="M24,31H12c-3.9,0-7-3.1-7-7V12c0-3.9,3.1-7,7-7h12c3.9,0,7,3.1,7,7v12C31,27.9,27.9,31,24,31z M12,7
		c-2.8,0-5,2.2-5,5v12c0,2.8,2.2,5,5,5h12c2.8,0,5-2.2,5-5V12c0-2.8-2.2-5-5-5H12z"/>
</g>
</svg>
