<?xml version="1.0" encoding="utf-8"?>
<!-- Generator: Adobe Illustrator 27.6.1, SVG Export Plug-In . SVG Version: 6.00 Build 0)  -->
<svg version="1.1" id="_x32_" xmlns="http://www.w3.org/2000/svg" xmlns:xlink="http://www.w3.org/1999/xlink" x="0px" y="0px"
	 viewBox="0 0 512 473.6" style="enable-background:new 0 0 512 473.6;" xml:space="preserve">
<style type="text/css">
	.st0{fill:#FFFFFF;}
</style>
<g>
	<path class="st0" d="M254.9,0C408,0,512,78.1,512,199.6c0,74.7-31.1,134.6-91.1,173.2c-4,2.6-8.7,3-7,10.4
		c7.2,29.9,19.6,83.3,19.6,83.3c0.5,2.3-0.3,4.6-2.2,6c-1.8,1.4-4.3,1.6-6.4,0.5c0,0-87.9-52.1-99.6-58.6
		c-27.3-15.6-50.9-18.7-68.6-18.7C135.4,395.7,0,347.1,0,198.3C0,82.9,93,0,254.9,0z"/>
</g>
</svg>
